<svg xmlns="http://www.w3.org/2000/svg" width="108" height="82" viewBox="0 0 108 82"><g transform="translate(-1335 -1683)"><circle cx="9.5" cy="9.5" r="9.5" transform="translate(1335 1683)" fill="#fffbef" opacity="0.32"/><circle cx="9.5" cy="9.5" r="9.5" transform="translate(1365 1683)" fill="#fffbef" opacity="0.32"/><circle cx="9.5" cy="9.5" r="9.5" transform="translate(1394 1683)" fill="#fffbef" opacity="0.32"/><circle cx="9.5" cy="9.5" r="9.5" transform="translate(1424 1683)" fill="#fffbef" opacity="0.32"/><circle cx="9.5" cy="9.5" r="9.5" transform="translate(1424 1714)" fill="#fffbef" opacity="0.32"/><circle cx="9.5" cy="9.5" r="9.5" transform="translate(1394 1714)" fill="#fffbef" opacity="0.32"/><circle cx="9.5" cy="9.5" r="9.5" transform="translate(1365 1714)" fill="#fffbef" opacity="0.32"/><circle cx="9.5" cy="9.5" r="9.5" transform="translate(1335 1714)" fill="#fffbef" opacity="0.32"/><circle cx="9.5" cy="9.5" r="9.5" transform="translate(1335 1746)" fill="#fffbef" opacity="0.32"/><circle cx="9.5" cy="9.5" r="9.5" transform="translate(1365 1746)" fill="#fffbef" opacity="0.32"/><circle cx="9.5" cy="9.5" r="9.5" transform="translate(1394 1746)" fill="#fffbef" opacity="0.32"/><circle cx="9.5" cy="9.5" r="9.5" transform="translate(1424 1746)" fill="#fffbef" opacity="0.32"/></g></svg>