<svg xmlns="http://www.w3.org/2000/svg" width="108" height="82" viewBox="0 0 108 82"><g transform="translate(345 -2980)"><circle cx="9.5" cy="9.5" r="9.5" transform="translate(-345 2980)" fill="#8c001b" opacity="0.32"/><circle cx="9.5" cy="9.5" r="9.5" transform="translate(-315 2980)" fill="#8c001b" opacity="0.32"/><circle cx="9.5" cy="9.5" r="9.5" transform="translate(-286 2980)" fill="#8c001b" opacity="0.32"/><circle cx="9.5" cy="9.5" r="9.5" transform="translate(-256 2980)" fill="#8c001b" opacity="0.32"/><circle cx="9.5" cy="9.5" r="9.5" transform="translate(-256 3011)" fill="#8c001b" opacity="0.32"/><circle cx="9.5" cy="9.5" r="9.5" transform="translate(-286 3011)" fill="#8c001b" opacity="0.32"/><circle cx="9.5" cy="9.5" r="9.5" transform="translate(-315 3011)" fill="#8c001b" opacity="0.32"/><circle cx="9.5" cy="9.5" r="9.5" transform="translate(-345 3011)" fill="#8c001b" opacity="0.32"/><circle cx="9.5" cy="9.5" r="9.5" transform="translate(-345 3043)" fill="#8c001b" opacity="0.32"/><circle cx="9.5" cy="9.5" r="9.5" transform="translate(-315 3043)" fill="#8c001b" opacity="0.32"/><circle cx="9.5" cy="9.5" r="9.5" transform="translate(-286 3043)" fill="#8c001b" opacity="0.32"/><circle cx="9.5" cy="9.5" r="9.5" transform="translate(-256 3043)" fill="#8c001b" opacity="0.32"/></g></svg>